<?xml version="1.0" encoding="utf-8"?>
<!-- Generator: Adobe Illustrator 21.0.2, SVG Export Plug-In . SVG Version: 6.00 Build 0)  -->
<svg version="1.1" id="Capa_1" xmlns="http://www.w3.org/2000/svg" xmlns:xlink="http://www.w3.org/1999/xlink" x="0px" y="0px"
	 viewBox="0 0 100 100" style="enable-background:new 0 0 100 100;" xml:space="preserve">
<style type="text/css">
	.st0{fill:#8000ff;}
</style>
<title>Group 2</title>
<desc>Created with Sketch.</desc>
<g id="Page-1">
	<g id="About-us" transform="translate(-849.000000, -328.000000)">
		<g id="Introduction-Header" transform="translate(-1.000000, -2.000000)">
			<g id="Group-2" transform="translate(850.000000, 330.000000)">
				<path id="Shape" class="st0" d="M85.2,55.9H45v3h40.3c1.9,0,3.5,1.5,3.5,3.5s-1.5,3.5-3.5,3.5H41.9V52h-3v16.9h46.3
					c3.6,0,6.5-2.9,6.5-6.5C91.7,58.8,88.8,55.9,85.2,55.9z"/>
				<path id="Shape_1_" class="st0" d="M12,52.5c0-1.9,1.5-3.5,3.5-3.5h39.8c3.6,0,6.5-2.9,6.5-6.5S58.9,36,55.3,36H38.9v7h3V39
					h13.4c1.9,0,3.5,1.5,3.5,3.5c0,1.9-1.5,3.5-3.5,3.5H15.5C11.9,46,9,48.9,9,52.5c0,3.6,2.9,6.5,6.5,6.5h20.3v-3H15.5
					C13.6,56,12,54.4,12,52.5z"/>
			</g>
		</g>
	</g>
</g>
</svg>
